<svg width="16" height="4" viewBox="0 0 16 4" fill="none" xmlns="http://www.w3.org/2000/svg">
<path d="M13.5024 2.00301C13.5024 2.27812 13.7275 2.50322 14.0026 2.50021C14.2778 2.50021 14.5029 2.27512 14.5029 2.00001C14.5029 1.72489 14.2778 1.4998 14.0026 1.4998C13.7275 1.4998 13.5024 1.72489 13.5024 2.00301" stroke="#696C70" stroke-width="1.5" stroke-linecap="round" stroke-linejoin="round"/>
<path d="M7.5 2.00301C7.5 2.27812 7.72509 2.50322 8.00021 2.50021C8.27532 2.50021 8.50042 2.27512 8.50042 2.00001C8.50042 1.72489 8.27532 1.4998 8.00021 1.4998C7.72509 1.4998 7.5 1.72489 7.5 2.00301" stroke="#696C70" stroke-width="1.5" stroke-linecap="round" stroke-linejoin="round"/>
<path d="M1.49756 2.00301C1.49756 2.27812 1.72265 2.50322 1.99777 2.50021C2.27288 2.50021 2.49798 2.27512 2.49798 2.00001C2.49798 1.72489 2.27288 1.4998 1.99777 1.4998C1.72265 1.4998 1.49756 1.72489 1.49756 2.00301" stroke="#696C70" stroke-width="1.5" stroke-linecap="round" stroke-linejoin="round"/>
</svg>
