<svg width="13" height="416" viewBox="0 0 13 416" fill="#DCDFE1" xmlns="http://www.w3.org/2000/svg">
    <mask id="path-1-inside-1_3_20" fill="#DCDFE1">
        <path d="M0 12H13V20H8C3.58172 20 0 16.4183 0 12Z"/>
    </mask>
    <path d="M0 12H13H0ZM13 22H8C2.47715 22 -2 17.5228 -2 12H2C2 15.3137 4.68629 18 8 18H13V22ZM8 22C2.47715 22 -2 17.5228 -2 12H2C2 15.3137 4.68629 18 8 18V22ZM13 12V20V12Z" fill="#DCDFE1" mask="url(#path-1-inside-1_3_20)"/>
    <mask id="path-3-inside-2_3_20" fill="#DCDFE1">
        <path d="M0 48H13V56H8C3.58172 56 0 52.4183 0 48Z"/>
    </mask>
    <path d="M0 48H13H0ZM13 58H8C2.47715 58 -2 53.5228 -2 48H2C2 51.3137 4.68629 54 8 54H13V58ZM8 58C2.47715 58 -2 53.5228 -2 48H2C2 51.3137 4.68629 54 8 54V58ZM13 48V56V48Z" fill="#DCDFE1" mask="url(#path-3-inside-2_3_20)"/>
    <mask id="path-5-inside-3_3_20" fill="#DCDFE1">
        <path d="M0 84H13V92H8C3.58172 92 0 88.4183 0 84Z"/>
    </mask>
    <path d="M0 84H13H0ZM13 94H8C2.47715 94 -2 89.5228 -2 84H2C2 87.3137 4.68629 90 8 90H13V94ZM8 94C2.47715 94 -2 89.5228 -2 84H2C2 87.3137 4.68629 90 8 90V94ZM13 84V92V84Z" fill="#DCDFE1" mask="url(#path-5-inside-3_3_20)"/>
    <mask id="path-7-inside-4_3_20" fill="#DCDFE1">
        <path d="M0 120H13V128H8C3.58172 128 0 124.418 0 120Z"/>
    </mask>
    <path d="M0 120H13H0ZM13 130H8C2.47715 130 -2 125.523 -2 120H2C2 123.314 4.68629 126 8 126H13V130ZM8 130C2.47715 130 -2 125.523 -2 120H2C2 123.314 4.68629 126 8 126V130ZM13 120V128V120Z" fill="#DCDFE1" mask="url(#path-7-inside-4_3_20)"/>
    <mask id="path-9-inside-5_3_20" fill="#DCDFE1">
        <path d="M0 156H13V164H8C3.58172 164 0 160.418 0 156Z"/>
    </mask>
    <path d="M0 156H13H0ZM13 166H8C2.47715 166 -2 161.523 -2 156H2C2 159.314 4.68629 162 8 162H13V166ZM8 166C2.47715 166 -2 161.523 -2 156H2C2 159.314 4.68629 162 8 162V166ZM13 156V164V156Z" fill="#DCDFE1" mask="url(#path-9-inside-5_3_20)"/>
    <mask id="path-11-inside-6_3_20" fill="#DCDFE1">
        <path d="M0 192H13V200H8C3.58172 200 0 196.418 0 192Z"/>
    </mask>
    <path d="M0 192H13H0ZM13 202H8C2.47715 202 -2 197.523 -2 192H2C2 195.314 4.68629 198 8 198H13V202ZM8 202C2.47715 202 -2 197.523 -2 192H2C2 195.314 4.68629 198 8 198V202ZM13 192V200V192Z" fill="#DCDFE1" mask="url(#path-11-inside-6_3_20)"/>
    <mask id="path-13-inside-7_3_20" fill="#DCDFE1">
        <path d="M0 228H13V236H8C3.58172 236 0 232.418 0 228Z"/>
    </mask>
    <path d="M0 228H13H0ZM13 238H8C2.47715 238 -2 233.523 -2 228H2C2 231.314 4.68629 234 8 234H13V238ZM8 238C2.47715 238 -2 233.523 -2 228H2C2 231.314 4.68629 234 8 234V238ZM13 228V236V228Z" fill="#DCDFE1" mask="url(#path-13-inside-7_3_20)"/>
    <mask id="path-15-inside-8_3_20" fill="#DCDFE1">
        <path d="M0 264H13V272H8C3.58172 272 0 268.418 0 264Z"/>
    </mask>
    <path d="M0 264H13H0ZM13 274H8C2.47715 274 -2 269.523 -2 264H2C2 267.314 4.68629 270 8 270H13V274ZM8 274C2.47715 274 -2 269.523 -2 264H2C2 267.314 4.68629 270 8 270V274ZM13 264V272V264Z" fill="#DCDFE1" mask="url(#path-15-inside-8_3_20)"/>
    <mask id="path-17-inside-9_3_20" fill="#DCDFE1">
        <path d="M0 300H13V308H8C3.58172 308 0 304.418 0 300Z"/>
    </mask>
    <path d="M0 300H13H0ZM13 310H8C2.47715 310 -2 305.523 -2 300H2C2 303.314 4.68629 306 8 306H13V310ZM8 310C2.47715 310 -2 305.523 -2 300H2C2 303.314 4.68629 306 8 306V310ZM13 300V308V300Z" fill="#DCDFE1" mask="url(#path-17-inside-9_3_20)"/>
    <mask id="path-19-inside-10_3_20" fill="#DCDFE1">
        <path d="M0 336H13V344H8C3.58172 344 0 340.418 0 336Z"/>
    </mask>
    <path d="M0 336H13H0ZM13 346H8C2.47715 346 -2 341.523 -2 336H2C2 339.314 4.68629 342 8 342H13V346ZM8 346C2.47715 346 -2 341.523 -2 336H2C2 339.314 4.68629 342 8 342V346ZM13 336V344V336Z" fill="#DCDFE1" mask="url(#path-19-inside-10_3_20)"/>
    <mask id="path-21-inside-11_3_20" fill="#DCDFE1">
        <path d="M0 338H13V380H8C3.58172 380 0 376.418 0 372V338Z"/>
    </mask>
    <path d="M0 338H13H0ZM13 382H8C2.47715 382 -2 377.523 -2 372H2C2 375.314 4.68629 378 8 378H13V382ZM8 382C2.47715 382 -2 377.523 -2 372V338H2V372C2 375.314 4.68629 378 8 378V382ZM13 338V380V338Z" fill="#DCDFE1" mask="url(#path-21-inside-11_3_20)"/>
    <mask id="path-23-inside-12_3_20" fill="#DCDFE1">
        <path d="M0 374H13V416H8C3.58172 416 0 412.418 0 408V374Z"/>
    </mask>
    <path d="M0 374H13H0ZM13 418H8C2.47715 418 -2 413.523 -2 408H2C2 411.314 4.68629 414 8 414H13V418ZM8 418C2.47715 418 -2 413.523 -2 408V374H2V408C2 411.314 4.68629 414 8 414V418ZM13 374V416V374Z" fill="#DCDFE1" mask="url(#path-23-inside-12_3_20)"/>
    <rect width="2" height="369.255" fill="#DCDFE1"/>
</svg>